<svg width="53" height="35" viewBox="0 0 53 35" fill="none" xmlns="http://www.w3.org/2000/svg">
<path d="M49.2418 29.4281V4.28475C49.2418 2.47364 47.7635 1 45.9468 1H7.05325C5.23646 1 3.75819 2.47364 3.75819 4.28475V29.4281H1V30.3736C1 32.3733 2.63181 34 4.6375 34H48.3625C50.3682 34 52 32.3733 52 30.3736V29.4281H49.2418ZM4.83139 4.28475C4.83139 3.06341 5.82808 2.06984 7.05325 2.06984H45.9468C47.1719 2.06984 48.1686 3.06341 48.1686 4.28475V29.3231H4.83139V4.28475ZM48.3625 32.9302H4.6375C3.26535 32.9302 2.14132 31.8504 2.07608 30.4979H50.9239C50.8587 31.8504 49.7346 32.9302 48.3625 32.9302Z" fill="#2F80ED" stroke="#2F80ED" stroke-width="1.3"/>
</svg>
