<svg width="80" height="94" viewBox="0 0 80 94" fill="none" xmlns="http://www.w3.org/2000/svg">
<path d="M21.1653 32.4421C22.1645 35.0927 24.7898 41.8241 26.7443 44.8435L26.9647 45.187C28.4552 47.5279 31.2283 51.8831 39.9978 51.8831C48.7605 51.8831 51.5377 47.5321 53.0282 45.194L53.2527 44.8435C55.21 41.8241 57.8325 35.0941 58.833 32.4421C60.4933 31.8072 61.6786 30.1603 61.6786 28.2346V23.4852C61.6786 21.7749 60.741 20.2856 59.3682 19.5269V17.5478C59.3682 12.2719 57.4807 8.59161e-08 39.9978 8.59161e-08C27.8694 8.59161e-08 20.6274 6.55964 20.6274 17.5478V19.5466C19.2655 20.3152 18.317 21.8101 18.317 23.4852V28.2346C18.3184 30.1603 19.5037 31.8072 21.1653 32.4421ZM22.4246 23.4838C22.4246 23.3951 22.5875 23.2332 22.6819 23.2206C23.8152 23.2206 24.735 22.2746 24.735 21.1091V17.5463C24.735 11.4681 27.3835 4.22154 39.9992 4.22154C52.6148 4.22154 55.2634 11.4667 55.2634 17.5463V21.1091C55.2634 22.2746 56.1831 23.2206 57.3165 23.2206C57.4588 23.2206 57.5738 23.3388 57.5738 23.4838V28.2332C57.5738 28.3796 57.4588 28.4979 57.3165 28.4979C56.461 28.4979 55.6931 29.044 55.3948 29.8689C54.4544 32.4477 51.6239 39.7436 49.8363 42.4997L49.594 42.8784C48.2363 45.0096 46.5431 47.6616 39.9978 47.6616C33.447 47.6616 31.7566 45.0068 30.3989 42.8742L30.1593 42.5026C28.0104 39.1819 24.6351 29.9618 24.6009 29.8675C24.2998 29.044 23.5346 28.4979 22.6792 28.4979C22.5368 28.4979 22.4218 28.3796 22.4218 28.2332V23.4838H22.4246ZM79.4353 73.7425C78.7331 72.1392 77.9146 71.4607 77.066 70.8526C74.2313 68.8214 59.1697 58.7032 40.3482 58.5244C40.2839 58.516 40.2168 58.5132 40.1497 58.5132L40.0224 58.5188C39.9964 58.516 39.8746 58.5132 39.85 58.5132C39.7829 58.5132 39.7172 58.516 39.6515 58.5244C20.8245 58.7032 5.76977 68.82 2.93922 70.8498C2.09197 71.4551 1.27347 72.1308 0.56446 73.7425C0.0210713 74.9855 -0.00493565 76.8689 0.000539302 77.394V91.8885C0.000539302 93.0541 0.918963 94 2.05365 94H77.9461C79.0794 94 79.9992 93.0541 79.9992 91.8885V77.4151C80.006 76.8689 79.9814 74.9827 79.4353 73.7425ZM75.8943 89.7771H4.10675V77.3714C4.10128 76.7507 4.18888 75.7653 4.30659 75.4796C4.60498 74.8011 4.80207 74.6603 5.28387 74.3168C7.95291 72.4038 22.1632 62.8515 39.8609 62.7446C39.9061 62.7446 39.9513 62.7417 39.9978 62.7389C39.9978 62.7389 39.9992 62.7389 40.0006 62.7389C40.0444 62.7417 40.0909 62.7446 40.1374 62.7446C57.8311 62.8515 72.0468 72.4024 74.7172 74.3168C75.199 74.6603 75.3961 74.8039 75.6918 75.4796C75.8013 75.7442 75.8998 76.6648 75.8943 77.3926V89.7771Z" fill="#6699CC"/>
</svg>
